<?xml version="1.0" standalone="no"?>
<!DOCTYPE svg PUBLIC "-//W3C//DTD SVG 1.1//EN" "http://www.w3.org/Graphics/SVG/1.1/DTD/svg11.dtd" >
<svg xmlns="http://www.w3.org/2000/svg">
<metadata>Generated by IcoMoon</metadata>
<defs>
<font id="dataIAm" horiz-adv-x="1024">
<font-face units-per-em="1024" ascent="960" descent="-64" />
<missing-glyph horiz-adv-x="1024" />
<glyph unicode="&#x20;" horiz-adv-x="512" d="" />
<glyph unicode="&#xe900;" glyph-name="question" horiz-adv-x="683" d="M388.596 211.686h-98.462c-15.754 0-27.569 11.819-27.569 27.571v29.538c0 82.709 53.169 157.538 131.939 185.109 23.631 7.876 45.292 21.662 63.015 41.353 98.462 118.153 7.876 259.938-110.277 263.876-43.323 1.969-84.677-13.785-116.184-43.323-25.6-23.631-41.354-53.169-45.292-86.646-1.969-11.816-13.785-21.661-29.539-21.661h-98.461c-17.723 0-31.508 13.784-29.538 31.508 7.877 74.831 41.354 141.784 94.523 194.953 63.015 59.077 143.754 90.584 230.4 88.615 163.445-5.908 297.355-139.815 303.26-303.261 5.909-137.847-78.767-261.908-206.767-309.17-17.724-7.876-29.539-21.662-29.539-39.381v-29.538c0-17.724-15.754-29.542-31.508-29.542zM420.111 4.919c0-15.757-13.785-29.538-29.539-29.538h-98.461c-15.754 0-29.539 13.781-29.539 29.538v98.462c0 15.753 13.784 29.538 29.539 29.538h98.461c15.754 0 29.539-13.786 29.539-29.538v-98.462z" />
<glyph unicode="&#xe901;" glyph-name="bell" d="M905.847 310.144h-9.847c-37.414 0-68.924 31.509-68.924 68.924v226.467c0 179.203-149.662 322.96-330.829 315.083-169.354-7.877-299.324-153.603-299.324-324.93v-218.588c0-37.419-31.508-66.957-68.923-66.957h-9.846c-43.323 0-78.769-37.414-78.769-80.738v-29.542c0-13.781 13.784-27.567 29.538-27.567h886.153c15.757 0 29.538 13.786 29.538 29.538v29.538c0 43.324-35.443 78.771-78.767 78.771zM608.482 93.547h-192.985c-11.815 0-21.661-11.819-19.692-23.633 9.846-55.138 59.078-94.524 116.183-94.524 57.109 0 106.342 41.353 116.186 94.524 1.971 11.814-7.876 23.633-19.691 23.633z" />
<glyph unicode="&#xe902;" glyph-name="down-arrow" horiz-adv-x="1593" d="M1554.002 733.32l-717.68-724.677c-21.006-21.005-56.014-21.005-77.018 0l-717.676 724.677c-21.005 21.006-21.005 56.014 0 77.020l77.019 77.018c21.005 21.005 56.014 21.005 77.018 0l563.638-570.64c21.005-21.005 56.013-21.005 77.018 0l563.636 567.139c21.003 21.005 56.013 21.005 77.016 0l77.028-77.018c17.499-21.006 17.499-52.513 0-73.519z" />
<glyph unicode="&#xe903;" glyph-name="add" d="M590.769 388.927h324.924c15.757 0 29.536 13.784 29.536 29.539v59.076c0 15.754-13.779 29.539-29.536 29.539h-324.924c-11.815 0-19.692 7.877-19.692 19.693v324.923c0 15.754-13.784 29.539-29.539 29.539h-59.076c-15.754 0-29.539-13.785-29.539-29.539v-324.923c0-11.816-7.877-19.693-19.692-19.693h-324.924c-15.754 0-29.539-13.784-29.539-29.539v-59.076c0-15.754 13.785-29.539 29.539-29.539h324.924c11.815 0 19.692-7.877 19.692-19.692v-324.921c0-15.757 13.784-29.542 29.539-29.542h59.076c15.754 0 29.539 13.786 29.539 29.542v324.921c0 11.815 7.877 19.692 19.692 19.692z" />
<glyph unicode="&#xe904;" glyph-name="info-circle" d="M511.999 920.607c-261.908 0-472.615-210.707-472.615-472.615s210.708-472.619 472.615-472.619c261.911 0 472.613 210.71 472.613 472.619s-210.703 472.615-472.613 472.615zM512.001 93.528c-196.923 0-354.461 157.539-354.461 354.463s157.538 354.461 354.461 354.461c196.923 0 354.464-157.539 354.464-354.461s-157.541-354.463-354.464-354.463zM512.011 682.329c33.477 0 59.077-25.6 59.077-59.077s-25.6-59.077-59.077-59.077c-33.477 0-59.077 25.6-59.077 59.077s25.6 59.077 59.077 59.077zM610.463 268.791c0-9.846-7.877-17.723-19.692-17.723h-157.539c-9.846 0-19.692 5.908-19.692 17.723v39.385c0 9.846 7.877 21.661 19.692 21.661 9.846 0 19.692 5.908 19.692 17.723v78.77c0 9.846-7.877 21.661-19.692 21.661-9.846 0-19.692 5.908-19.692 17.723v39.385c0 9.846 7.877 21.661 19.692 21.661h118.154c9.846 0 19.692-9.846 19.692-21.661v-157.539c0-9.846 7.877-17.723 19.692-17.723 9.846 0 19.692-9.846 19.692-21.661v-39.385z" />
<glyph unicode="&#xe905;" glyph-name="down-chevron" horiz-adv-x="1536" d="M70.893 920.625h1394.22c39.386 0 66.944-51.2 35.443-86.646l-681.356-834.954c-23.631-31.507-74.831-31.507-98.461 0l-689.231 834.954c-27.569 35.446-3.938 86.646 39.385 86.646z" />
<glyph unicode="&#xe906;" glyph-name="arrow-warm-up" horiz-adv-x="731" d="M316.953 749.102l-224.305-223.084-68.267 68.264 341.333 341.334 341.336-341.334-68.268-69.486-224.304 224.305v-349.866h-97.525v349.866zM316.953 155.425v146.286h97.525v-146.286h-97.525zM316.953-39.621v97.525h97.525v-97.525h-97.525z" />
<glyph unicode="&#xe907;" glyph-name="cross" d="M640 463.34l332.8 335.36c15.36 15.36 15.36 38.4 0 53.76l-51.2 53.76c-15.36 15.36-38.4 15.36-53.76 0l-335.36-335.36c-10.24-10.24-25.599-10.24-35.839 0l-335.36 337.92c-15.36 15.36-38.4 15.36-53.76 0l-53.76-53.76c-15.36-15.36-15.36-38.4 0-53.76l335.36-335.36c10.24-10.24 10.24-25.601 0-35.841l-337.92-337.92c-15.36-15.36-15.36-38.4 0-53.76l53.76-53.76c15.36-15.36 38.4-15.36 53.76 0l335.36 335.36c10.24 10.24 25.599 10.24 35.839 0l335.36-335.36c15.36-15.36 38.4-15.36 53.76 0l53.76 53.76c15.36 15.36 15.36 38.4 0 53.76l-332.8 335.36c-10.24 10.24-10.24 25.601 0 35.841z" />
<glyph unicode="&#xe908;" glyph-name="filter" d="M63.34 764.703h475.051zM0 764.703c0 34.983 28.359 63.34 63.34 63.34h475.051c34.984 0 63.34-28.359 63.34-63.34s-28.358-63.34-63.34-63.34h-475.051c-34.983 0-63.34 28.359-63.34 63.34zM63.34 448h369.485zM0 448c0 34.983 28.359 63.34 63.34 63.34h369.485c34.983 0 63.343-28.359 63.343-63.34 0-34.984-28.361-63.34-63.343-63.34h-369.485c-34.983 0-63.34 28.358-63.34 63.34zM63.34 131.297h369.485zM0 131.297c0 34.984 28.359 63.34 63.34 63.34h369.485c34.983 0 63.343-28.358 63.343-63.34s-28.361-63.34-63.343-63.34h-369.485c-34.983 0-63.34 28.358-63.34 63.34zM599.172 334.438c24.735 24.735 64.841 24.735 89.576 0l113.562-108.13 113.562 108.13c24.735 24.735 64.841 24.735 89.576 0s24.735-64.841 0-89.576l-158.351-158.351c-24.735-24.735-64.841-24.735-89.576 0l-158.351 158.351c-24.735 24.735-24.735 64.841 0 89.576zM802.313 764.703v-538.394zM802.313 828.043c34.984 0 63.34-28.359 63.34-63.34v-480.489c0-34.984-28.358-57.906-63.34-57.906s-63.34 22.922-63.34 57.906v480.489c0 34.983 28.358 63.34 63.34 63.34z" />
<glyph unicode="&#xe909;" glyph-name="tick" horiz-adv-x="1365" d="M488.512-16.319l-464.313 467.129c-16.884 16.883-16.884 45.024 0 61.908l61.908 61.908c16.883 16.884 45.024 16.884 61.908 0l348.938-351.752c11.255-11.257 30.954-11.257 42.211 0l683.806 689.433c16.883 16.884 45.024 16.884 61.906 0l61.906-61.908c16.892-16.884 16.892-45.024 0-61.909l-796.362-804.81c-16.883-19.7-45.024-19.7-61.908 0z" />
<glyph unicode="&#xe90a;" glyph-name="search" d="M1008.407 42.767l-281.668 279.482c56.756 79.852 86.186 180.716 71.468 287.884-25.221 180.716-172.361 323.608-355.234 340.42-248.034 25.216-458.232-184.919-433.009-434.981 16.816-180.716 159.751-329.911 340.522-355.126 107.201-14.712 208.097 14.705 287.972 71.44l279.561-279.475c12.614-12.607 31.535-12.607 44.142 0l44.142 44.128c12.614 12.607 12.614 33.619 2.104 46.226zM133.98 555.479c0 149.196 121.915 271.075 271.156 271.075s271.153-121.879 271.153-271.075c0-149.196-121.912-271.077-271.153-271.077s-271.156 119.781-271.156 271.077z" />
<glyph unicode="&#xe90b;" glyph-name="list-view" d="M260.382 929.389h-196.922c-17.504 0-32.821-15.316-32.821-32.82v-371.962c0-17.504 15.316-32.82 32.821-32.82h196.922c17.505 0 32.821 15.316 32.821 32.82v371.962c0 17.504-15.316 32.82-32.821 32.82zM610.475 929.389h-196.925c-17.504 0-32.82-15.316-32.82-32.82v-371.962c0-17.504 15.316-32.82 32.82-32.82h196.925c17.499 0 32.819 15.316 32.819 32.82v371.962c0 17.504-15.32 32.82-32.819 32.82zM960.546 929.389h-196.921c-17.505 0-32.825-15.316-32.825-32.82v-371.962c0-17.504 15.32-32.82 32.825-32.82h196.921c17.505 0 32.819 15.316 32.819 32.82v371.962c0 17.504-15.314 32.82-32.819 32.82zM260.382 404.255h-196.922c-17.504 0-32.821-15.317-32.821-32.822v-371.962c0-17.499 15.316-32.819 32.821-32.819h196.922c17.505 0 32.821 15.32 32.821 32.819v371.962c0 17.505-15.316 32.822-32.821 32.822zM610.475 404.255h-196.925c-17.504 0-32.82-15.317-32.82-32.822v-371.962c0-17.499 15.316-32.819 32.82-32.819h196.925c17.499 0 32.819 15.32 32.819 32.819v371.962c0 17.505-15.32 32.822-32.819 32.822zM960.546 404.255h-196.921c-17.505 0-32.825-15.317-32.825-32.822v-371.962c0-17.499 15.32-32.819 32.825-32.819h196.921c17.505 0 32.819 15.32 32.819 32.819v371.962c0 17.505-15.314 32.822-32.819 32.822z" />
<glyph unicode="&#xe90c;" glyph-name="table-view" horiz-adv-x="922" d="M864.497 920.6h-807.383c-15.754 0-29.539-13.785-29.539-29.538v-98.46c0-15.753 13.785-29.538 29.539-29.538h807.383c15.754 0 29.537 13.785 29.537 29.538v98.46c0 15.753-13.783 29.538-29.537 29.538zM234.344 684.243h-177.23c-15.754 0-29.539-13.785-29.539-29.538v-59.076c0-15.754 13.785-29.538 29.539-29.538h177.23c15.754 0 29.538 13.784 29.538 29.538v59.076c0 15.753-13.785 29.538-29.538 29.538zM549.417 684.243h-177.229c-15.754 0-29.538-13.785-29.538-29.538v-59.076c0-15.754 13.785-29.538 29.538-29.538h177.229c15.754 0 29.537 13.784 29.537 29.538v59.076c0 15.753-13.783 29.538-29.537 29.538zM864.502 684.243h-177.234c-15.749 0-29.537-13.785-29.537-29.538v-59.076c0-15.754 13.788-29.538 29.537-29.538h177.234c15.754 0 29.537 13.784 29.537 29.538v59.076c0 15.753-13.783 29.538-29.537 29.538zM234.344 487.39h-177.23c-15.754 0-29.539-13.784-29.539-29.538v-59.076c0-15.754 13.785-29.537 29.539-29.537h177.23c15.754 0 29.538 13.783 29.538 29.537v59.076c0 15.754-13.785 29.538-29.538 29.538zM549.417 487.39h-177.229c-15.754 0-29.538-13.784-29.538-29.538v-59.076c0-15.754 13.785-29.537 29.538-29.537h177.229c15.754 0 29.537 13.783 29.537 29.537v59.076c0 15.754-13.783 29.538-29.537 29.538zM864.502 487.39h-177.234c-15.749 0-29.537-13.784-29.537-29.538v-59.076c0-15.754 13.788-29.537 29.537-29.537h177.234c15.754 0 29.537 13.783 29.537 29.537v59.076c0 15.754-13.783 29.538-29.537 29.538zM234.344 290.524h-177.23c-15.754 0-29.539-13.788-29.539-29.537v-59.080c0-15.754 13.785-29.537 29.539-29.537h177.23c15.754 0 29.538 13.783 29.538 29.537v59.080c0 15.749-13.785 29.537-29.538 29.537zM549.417 290.524h-177.229c-15.754 0-29.538-13.788-29.538-29.537v-59.080c0-15.754 13.785-29.537 29.538-29.537h177.229c15.754 0 29.537 13.783 29.537 29.537v59.080c0 15.749-13.783 29.537-29.537 29.537zM864.502 290.524h-177.234c-15.749 0-29.537-13.788-29.537-29.537v-59.080c0-15.754 13.788-29.537 29.537-29.537h177.234c15.754 0 29.537 13.783 29.537 29.537v59.080c0 15.749-13.783 29.537-29.537 29.537zM234.344 93.517h-177.23c-15.754 0-29.539-13.783-29.539-29.537v-59.075c0-15.754 13.785-29.537 29.539-29.537h177.23c15.754 0 29.538 13.783 29.538 29.537v59.075c0 15.754-13.785 29.537-29.538 29.537zM549.417 93.517h-177.229c-15.754 0-29.538-13.783-29.538-29.537v-59.075c0-15.754 13.785-29.537 29.538-29.537h177.229c15.754 0 29.537 13.783 29.537 29.537v59.075c0 15.754-13.783 29.537-29.537 29.537zM864.502 93.517h-177.234c-15.749 0-29.537-13.783-29.537-29.537v-59.075c0-15.754 13.788-29.537 29.537-29.537h177.234c15.754 0 29.537 13.783 29.537 29.537v59.075c0 15.754-13.783 29.537-29.537 29.537z" />
<glyph unicode="&#xe90d;" glyph-name="users" d="M848.411 525.825c-58.869 23.128-67.281 46.254-67.281 69.382s16.824 46.254 37.85 63.074c35.738 29.435 54.667 73.586 54.667 121.943 0 92.508-60.981 172.402-168.209 172.402-98.821 0-157.693-67.278-166.103-149.274 0-8.41 4.206-14.717 10.513-18.922 79.898-50.46 128.257-138.764 128.257-245.988 0-79.894-31.539-151.378-88.308-201.836-4.206-4.205-4.206-12.614 0-16.82 14.717-10.515 48.359-25.227 69.386-35.743 6.307-2.098 10.509-4.203 16.816-4.203h254.411c48.36 0 86.209 39.945 86.209 84.098v12.614c0 73.586-79.902 113.533-168.209 149.275zM566.675 233.536c-71.487 29.438-82 54.667-82 81.997 0 27.332 21.025 54.663 44.154 75.689 42.052 35.742 65.179 86.201 65.179 145.070 0 109.329-71.487 203.94-201.847 203.94-128.257 0-201.847-94.611-201.847-203.94 0-58.868 23.129-109.328 65.179-145.070 23.129-21.025 44.154-48.357 44.154-75.689 0-27.33-10.513-54.663-84.102-81.997-105.129-42.045-208.155-90.405-208.155-178.706v-27.333c0-46.255 37.846-84.098 86.206-84.098h582.41c48.36 0 88.314 37.843 88.314 84.098v29.431c0 86.203-92.517 134.562-197.646 176.608z" />
<glyph unicode="&#xe90e;" glyph-name="arrow-right" horiz-adv-x="2304" d="M1874.714 543.996l-171.84 171.808c-17.702 17.324-26.56 38.966-26.56 64.928 0 25.964 9.523 48.534 28.544 67.712 17.459 17.579 39.667 26.368 66.624 26.368 26.97 0 49.318-8.853 67.046-26.56l320.474-319.264c23.155-23.146 34.726-50.144 34.726-80.992s-11.571-57.844-34.726-80.992l-320.474-320.48c-17.728-17.728-39.475-26.922-65.254-27.584-25.741-0.64-48.205 8.556-67.392 27.584-17.574 17.452-26.368 39.66-26.368 66.624 0 26.966 8.858 49.312 26.56 67.040l168.64 171.808h-1714.715c-27.2 0-49.995 9.206-68.384 27.616-18.411 18.412-27.616 41.216-27.616 68.416 0 27.222 9.205 50.016 27.616 68.384 18.39 18.39 41.184 27.584 68.384 27.584h1714.715z" />
<glyph unicode="&#xe90f;" d="M113.778 960h796.444c62.838 0 113.778-50.94 113.778-113.778v-796.444c0-62.838-50.94-113.778-113.778-113.778h-796.444c-62.838 0-113.778 50.94-113.778 113.778v796.444c0 62.838 50.94 113.778 113.778 113.778z" />
<glyph unicode="&#xe910;" d="M296.96 314.886v327.68c-33.791 0-61.439-27.648-61.439-61.44v-389.12c0-33.792 27.648-61.44 61.439-61.44h307.2c33.792 0 61.44 27.648 61.44 61.44h-245.76c-67.584 0-122.88 0-122.88 122.88z" />
<glyph unicode="&#xe911;" d="M768 581.126h-102.4c-33.792 0-61.44 27.648-61.44 61.44v102.399c0 11.264-9.216 20.48-20.48 20.48h-163.84c-33.792 0-61.44-27.648-61.44-61.44v-389.119c0-33.792 27.648-61.44 61.44-61.44h307.2c33.792 0 61.44 27.648 61.44 61.44v245.76c0 11.264-9.216 20.48-20.48 20.48z" />
<glyph unicode="&#xe912;" d="M784.384 667.142l-94.208 94.207c-3.072 3.072-6.144 4.096-10.24 4.096-8.192 0-14.336-6.144-14.336-14.336v-67.584c0-22.527 18.432-40.959 40.96-40.959h67.584c8.192 0 14.336 6.144 14.336 14.336 0 4.096-1.024 7.168-4.096 10.24z" />
<glyph unicode="&#xe913;" glyph-name="big-arrow-right" horiz-adv-x="4523" d="M4482.586 402.745c24.994 24.993 24.994 65.516 0 90.51l-407.287 407.294c-24.994 24.994-65.519 24.994-90.513 0s-24.994-65.516 0-90.51l362.035-362.039-362.035-362.035c-24.994-24.994-24.994-65.519 0-90.513s65.519-24.994 90.513 0l407.287 407.293zM0 384h4437.333v128h-4437.333v-128z" />
<glyph unicode="&#xe914;" glyph-name="cross-filled" d="M512 952.626c-279.641 0-504.615-224.975-504.615-504.615 0-279.643 224.974-504.618 504.615-504.618s504.614 224.974 504.614 504.618c0 279.641-224.974 504.615-504.614 504.615zM615.019 431.196l164.001-164c8.411-8.411 8.411-21.026 0-29.438l-58.869-58.869c-8.411-8.411-21.026-8.411-29.438 0l-164.001 163.999c-8.41 8.409-21.026 8.409-29.436 0l-164-163.999c-8.41-8.411-21.026-8.411-29.436 0l-58.872 58.869c-8.41 8.411-8.41 21.026 0 29.438l164 164c8.41 8.409 8.41 21.025 0 29.436l-166.102 166.102c-8.41 8.41-8.41 21.026 0 29.436l58.872 58.872c8.409 8.41 21.025 8.41 29.436 0l166.102-166.102c8.409-8.409 21.025-8.409 29.436 0l164.001 164c8.411 8.41 21.026 8.41 29.438 0l58.869-58.872c8.411-8.409 8.411-21.025 0-29.436l-164.001-164c-6.307-8.409-6.307-21.025 0-29.436z" />
<glyph unicode="&#xe915;" glyph-name="run" d="M39.375-16.734v929.481c0 26.256 34.133 44.636 57.764 23.631l871.71-454.236c21.009-15.754 21.009-49.888 0-65.641l-871.71-459.492c-23.631-18.372-57.764-2.62-57.764 26.257z" />
<glyph unicode="&#xe916;" glyph-name="schedule" horiz-adv-x="896" d="M794.586 826.103h-78.771v31.507c0 35.446-27.571 63.015-63.014 63.015-35.448 0-63.017-27.569-63.017-63.015v-31.507h-283.569v31.507c0 35.446-27.569 63.015-63.016 63.015s-63.015-27.569-63.015-63.015v-31.507h-78.769c-51.2 0-94.523-43.323-94.523-94.522v-31.507c0-17.723 13.785-31.508 31.508-31.508h819.202c17.722 0 31.507 13.785 31.507 31.508v31.507c0 51.199-43.322 94.522-94.522 94.522zM857.6 574.033h-819.202c-17.723 0-31.508-13.784-31.508-31.507v-472.612c0-51.2 43.323-94.522 94.523-94.522h693.172c51.2 0 94.522 43.322 94.522 94.522v472.612c0 17.723-13.786 31.507-31.507 31.507zM447.997 40.397c-129.969 0-234.338 106.336-234.338 234.336 0 129.965 106.338 234.333 234.338 234.333s234.339-106.338 234.339-234.333c0-129.971-104.369-234.336-234.339-234.336zM471.638 284.57v100.431c0 7.876-7.877 15.754-15.754 15.754h-15.754c-7.877 0-15.754-7.877-15.754-15.754v-110.274c0-5.907 1.969-11.814 7.876-15.757l74.831-74.829c5.908-5.907 15.754-5.907 21.661 0l11.816 11.814c5.908 5.907 5.908 15.757 0 21.664l-68.923 66.95z" />
<glyph unicode="&#xe917;" glyph-name="upload" horiz-adv-x="1088" d="M1017.047 342.897h-63.074c-16.823 0-31.534-16.821-31.534-31.538v-210.26c0-16.815-14.718-31.534-31.54-31.534h-693.798c-16.82 0-31.537 14.718-31.537 31.534v210.26c0 14.718-14.716 31.538-31.537 31.538h-63.072c-16.82 0-31.537-16.821-31.537-31.538v-283.849c0-46.252 37.845-84.099 84.097-84.099h840.967c46.259 0 84.099 37.848 84.099 84.099v283.849c0 14.718-14.718 31.538-31.534 31.538zM565.027 944.167c-12.614 12.615-31.537 12.615-44.151 0l-283.827-283.845c-12.615-12.615-12.615-31.538 0-44.154l44.151-44.154c12.615-12.615 31.537-12.615 44.151 0l117.736 117.743c12.614 12.615 37.845 4.205 37.845-14.718v-445.744c0-16.823 12.615-31.54 29.434-31.54h63.073c16.82 0 33.639 16.823 33.639 31.54v443.641c0 18.923 21.024 27.334 35.74 14.718l117.737-117.743c12.613-12.615 31.534-12.615 44.147 0l44.154 44.154c12.613 12.615 12.613 31.538 0 44.153l-283.828 285.949z" />
<glyph unicode="&#xe918;" glyph-name="delete" d="M922 784.422h-262.824v84.102c0 46.255-37.844 84.101-84.1 84.101h-126.154c-46.256 0-84.102-37.846-84.102-84.101v-84.102h-262.821c-16.821 0-31.539-14.718-31.539-31.539v-63.076c0-16.821 14.718-31.538 31.539-31.538h820.001c16.816 0 31.536 14.717 31.536 31.538v63.076c0 16.821-14.719 31.539-31.536 31.539zM448.927 847.519c0 12.616 8.41 21.025 21.025 21.025h84.102c12.616 0 21.025-8.409 21.025-21.025v-63.076h-126.154v63.076zM837.888 574.159h-651.794c-16.821 0-31.539-14.717-31.539-31.539v-494.097c0-58.876 46.257-105.131 105.129-105.131h504.616c58.869 0 105.124 46.255 105.124 105.131v494.097c0 16.821-14.712 31.539-31.536 31.539zM448.922 111.601c0-12.614-8.41-21.026-21.025-21.026h-42.052c-12.615 0-21.025 8.411-21.025 21.026v294.358c0 12.615 8.41 21.025 21.025 21.025h42.052c12.615 0 21.025-8.41 21.025-21.025v-294.358zM659.17 111.601c0-12.614-8.405-21.026-21.023-21.026h-42.052c-12.615 0-21.025 8.411-21.025 21.026v294.358c0 12.615 8.41 21.025 21.025 21.025h42.052c12.618 0 21.023-8.41 21.023-21.025v-294.358z" />
</font>
</defs>
</svg>
