<svg width="17" height="12" viewBox="0 0 17 12" fill="none" xmlns="http://www.w3.org/2000/svg">
<path fill-rule="evenodd" clip-rule="evenodd" d="M7.19482 1.22841C7.71689 0.706334 8.42322 0.368522 9.22169 0.368522C10.2658 0.368522 11.1871 0.952015 11.6785 1.8119C12.1084 1.62764 12.5691 1.5048 13.0605 1.5048C14.9645 1.5048 16.5 3.04031 16.5 4.94434C16.5 6.84837 14.9645 8.38388 13.0605 8.38388C12.8148 8.38388 12.5998 8.35317 12.3848 8.32246C11.9549 9.09021 11.1257 9.61228 10.1737 9.61228C9.77447 9.61228 9.40595 9.52015 9.06814 9.3666C8.6382 10.38 7.62476 11.0864 6.42706 11.0864C5.19866 11.0864 4.1238 10.3186 3.72457 9.21305C3.54031 9.24376 3.35605 9.27447 3.17178 9.27447C1.6977 9.27447 0.5 8.07678 0.5 6.60269C0.5 5.61996 1.02207 4.76008 1.82054 4.29942C1.66699 3.9309 1.57486 3.50096 1.57486 3.07102C1.57486 1.38196 2.95681 0 4.67658 0C5.75144 0.0307102 6.64203 0.491363 7.19482 1.22841Z" fill="#009DDC"/>
</svg>
