<svg width="17" height="16" viewBox="0 0 17 16" fill="none" xmlns="http://www.w3.org/2000/svg">
<path d="M15.037 6.69437H14.5V6.66671H8.50001V9.33337H12.2677C11.718 10.8857 10.241 12 8.50001 12C6.29101 12 4.50001 10.209 4.50001 8.00004C4.50001 5.79104 6.29101 4.00004 8.50001 4.00004C9.51968 4.00004 10.4473 4.38471 11.1537 5.01304L13.0393 3.12737C11.8487 2.01771 10.256 1.33337 8.50001 1.33337C4.81834 1.33337 1.83334 4.31837 1.83334 8.00004C1.83334 11.6817 4.81834 14.6667 8.50001 14.6667C12.1817 14.6667 15.1667 11.6817 15.1667 8.00004C15.1667 7.55304 15.1207 7.11671 15.037 6.69437Z" fill="#FFC107"/>
<path d="M2.60199 4.89704L4.79232 6.50337C5.38499 5.03604 6.82032 4.00004 8.49999 4.00004C9.51966 4.00004 10.4473 4.38471 11.1537 5.01304L13.0393 3.12737C11.8487 2.01771 10.256 1.33337 8.49999 1.33337C5.93932 1.33337 3.71866 2.77904 2.60199 4.89704Z" fill="#FF3D00"/>
<path d="M8.5 14.6667C10.222 14.6667 11.7867 14.0077 12.9697 12.936L10.9063 11.19C10.237 11.697 9.405 12 8.5 12C6.766 12 5.29367 10.8943 4.739 9.35132L2.565 11.0263C3.66834 13.1853 5.909 14.6667 8.5 14.6667Z" fill="#4CAF50"/>
<path d="M15.037 6.69429H14.5V6.66663H8.5V9.33329H12.2677C12.0037 10.079 11.524 10.722 10.9053 11.1903L10.9063 11.1896L12.9697 12.9356C12.8237 13.0683 15.1667 11.3333 15.1667 7.99996C15.1667 7.55296 15.1207 7.11663 15.037 6.69429Z" fill="#1976D2"/>
</svg>
