<svg width="88" height="88" viewBox="0 0 88 88" fill="none" xmlns="http://www.w3.org/2000/svg">
<g clip-path="url(#clip0_105_408)">
<path d="M2 88C0.895429 88 0 87.1046 0 86V1.99999C0 0.895424 0.895431 -7.62939e-06 2 -7.62939e-06H86C87.1046 -7.62939e-06 88 0.895424 88 1.99999V86C88 87.1046 87.1046 88 86 88H2Z" fill="white" stroke="url(#paint0_linear_105_408)" stroke-width="19"/>
<path d="M14.96 53.7666V52.1274L16.4307 51.8182V42.0951L14.96 41.7766V40.128H20.9457C22.1634 40.128 23.2375 40.4153 24.168 40.9898C25.0984 41.558 25.8228 42.348 26.3412 43.3597C26.8657 44.3651 27.128 45.5204 27.128 46.8255V47.0784C27.128 48.3711 26.8688 49.5233 26.3505 50.5349C25.8384 51.5403 25.1203 52.3303 24.1961 52.9048C23.2718 53.4794 22.2009 53.7666 20.9831 53.7666H14.96ZM19.1659 51.6777H20.8426C21.5982 51.6777 22.2383 51.481 22.7629 51.0876C23.2875 50.6879 23.6871 50.1415 23.9619 49.4483C24.2429 48.7552 24.3834 47.9652 24.3834 47.0784V46.8162C24.3834 45.9169 24.2429 45.1238 23.9619 44.4369C23.6871 43.7437 23.2875 43.2036 22.7629 42.8164C22.2383 42.423 21.5982 42.2262 20.8426 42.2262H19.1659V51.6777Z" fill="#009CDA"/>
<path d="M31.7741 53.9633C30.7687 53.9633 29.9694 53.6948 29.3761 53.1577C28.7829 52.6145 28.4862 51.8776 28.4862 50.9471C28.4862 50.3101 28.658 49.7512 29.0014 49.2704C29.3511 48.7895 29.8632 48.4117 30.5377 48.1369C31.2183 47.8622 32.0551 47.7248 33.0481 47.7248H34.3876V46.9754C34.3876 46.4883 34.2439 46.0949 33.9567 45.7951C33.6757 45.4891 33.251 45.3361 32.6827 45.3361C32.3892 45.3361 32.127 45.3736 31.8959 45.4486C31.6648 45.5172 31.4525 45.6172 31.2589 45.7483L31.0435 47.0878H29.0764L29.0389 44.4556C29.5697 44.1559 30.1442 43.9123 30.7625 43.725C31.3807 43.5376 32.0708 43.444 32.8326 43.444C34.1565 43.444 35.2025 43.7531 35.9706 44.3713C36.7387 44.9833 37.1228 45.8607 37.1228 47.0035V51.1813C37.1228 51.3187 37.1228 51.456 37.1228 51.5934C37.129 51.7246 37.1415 51.8526 37.1603 51.9775L38.2187 52.1274V53.7666H34.8278C34.7591 53.5918 34.6904 53.4044 34.6217 53.2046C34.5531 53.0048 34.5031 52.8049 34.4719 52.6051C34.1471 53.0172 33.7631 53.3482 33.3197 53.598C32.8826 53.8416 32.3674 53.9633 31.7741 53.9633ZM32.5048 51.94C32.8857 51.94 33.2479 51.8557 33.5914 51.6871C33.9348 51.5122 34.2002 51.2843 34.3876 51.0033V49.4015H33.0387C32.4392 49.4015 31.9833 49.5389 31.6711 49.8137C31.3651 50.0884 31.2121 50.4194 31.2121 50.8066C31.2121 51.1688 31.3245 51.4498 31.5493 51.6496C31.7804 51.8432 32.0989 51.94 32.5048 51.94Z" fill="#009CDA"/>
<path d="M42.8368 53.9633C41.8938 53.9633 41.1663 53.7042 40.6542 53.1859C40.1484 52.6675 39.8955 51.8463 39.8955 50.7223V45.5516H38.4998V43.6313H39.8955V41.149H42.6213V43.6313H44.4854V45.5516H42.6213V50.7129C42.6213 51.1063 42.7025 51.3874 42.8649 51.556C43.0335 51.7246 43.2614 51.8089 43.5487 51.8089C43.7048 51.8089 43.8672 51.7995 44.0358 51.7808C44.2106 51.7558 44.3605 51.7308 44.4854 51.7058L44.7196 53.6823C44.4386 53.7635 44.1326 53.8291 43.8016 53.879C43.4769 53.9352 43.1553 53.9633 42.8368 53.9633Z" fill="#009CDA"/>
<path d="M49.1409 53.9633C48.1355 53.9633 47.3361 53.6948 46.7429 53.1577C46.1496 52.6145 45.853 51.8776 45.853 50.9471C45.853 50.3101 46.0247 49.7512 46.3682 49.2704C46.7179 48.7895 47.23 48.4117 47.9044 48.1369C48.5851 47.8622 49.4219 47.7248 50.4148 47.7248H51.7543V46.9754C51.7543 46.4883 51.6107 46.0949 51.3234 45.7951C51.0424 45.4891 50.6178 45.3361 50.0495 45.3361C49.756 45.3361 49.4937 45.3736 49.2627 45.4486C49.0316 45.5172 48.8193 45.6172 48.6257 45.7483L48.4102 47.0878H46.4431L46.4057 44.4556C46.9365 44.1559 47.511 43.9123 48.1292 43.725C48.7475 43.5376 49.4375 43.444 50.1994 43.444C51.5233 43.444 52.5693 43.7531 53.3374 44.3713C54.1055 44.9833 54.4896 45.8607 54.4896 47.0035V51.1813C54.4896 51.3187 54.4896 51.456 54.4896 51.5934C54.4958 51.7246 54.5083 51.8526 54.527 51.9775L55.5855 52.1274V53.7666H52.1946C52.1259 53.5918 52.0572 53.4044 51.9885 53.2046C51.9198 53.0048 51.8699 52.8049 51.8386 52.6051C51.5139 53.0172 51.1299 53.3482 50.6865 53.598C50.2493 53.8416 49.7341 53.9633 49.1409 53.9633ZM49.8715 51.94C50.2525 51.94 50.6147 51.8557 50.9581 51.6871C51.3016 51.5122 51.567 51.2843 51.7543 51.0033V49.4015H50.4055C49.806 49.4015 49.3501 49.5389 49.0378 49.8137C48.7319 50.0884 48.5789 50.4194 48.5789 50.8066C48.5789 51.1688 48.6913 51.4498 48.9161 51.6496C49.1471 51.8432 49.4656 51.94 49.8715 51.94Z" fill="#009CDA"/>
<path d="M14.96 72.9506V71.3114L16.4119 71.0303V61.2416L14.96 60.9606V59.312H20.5991V60.9606L19.1472 61.2416V71.0303L20.5991 71.3114V72.9506H14.96Z" fill="#009CDA"/>
<path d="M26.21 72.9506V71.3114L27.1842 71.1709L31.5212 59.312H34.322L38.6309 71.1709L39.6051 71.3114V72.9506H34.959V71.3114L35.9051 71.1427L35.3056 69.2693H30.5096L29.9101 71.1427L30.8561 71.3114V72.9506H26.21ZM31.1559 67.2554H34.6592L33.0668 62.5811L32.9357 62.169H32.8795L32.7389 62.6092L31.1559 67.2554Z" fill="#009CDA"/>
<path d="M40.2889 72.9506V71.3114L41.6097 71.0303V64.745L40.1484 64.4639V62.8153H44.1482L44.2606 64.1548C44.5853 63.6677 44.9912 63.293 45.4783 63.0308C45.9717 62.7622 46.5399 62.628 47.1831 62.628C47.8326 62.628 48.3884 62.7716 48.8505 63.0589C49.3189 63.3461 49.6686 63.7801 49.8996 64.3609C50.2119 63.8176 50.6178 63.393 51.1174 63.087C51.6169 62.781 52.204 62.628 52.8784 62.628C53.8776 62.628 54.6644 62.9683 55.2389 63.649C55.8197 64.3297 56.1101 65.3663 56.1101 66.7589V71.0303L57.4309 71.3114V72.9506H52.1946V71.3114L53.3749 71.0303V66.7495C53.3749 66.0002 53.25 65.4818 53.0002 65.1946C52.7566 64.9011 52.4007 64.7543 51.9323 64.7543C51.5077 64.7543 51.1486 64.8761 50.8551 65.1196C50.5616 65.3569 50.3493 65.6723 50.2181 66.0657V71.0303L51.3234 71.3114V72.9506H46.3869V71.3114L47.4923 71.0303V66.7495C47.4923 66.0189 47.3674 65.5037 47.1176 65.204C46.874 64.9042 46.5118 64.7543 46.031 64.7543C45.6438 64.7543 45.3097 64.8324 45.0287 64.9885C44.7477 65.1446 44.5166 65.3694 44.3355 65.6629V71.0303L45.5158 71.3114V72.9506H40.2889Z" fill="#009CDA"/>
</g>
<defs>
<linearGradient id="paint0_linear_105_408" x1="3.41733e-06" y1="88" x2="88" y2="-5.56304e-07" gradientUnits="userSpaceOnUse">
<stop stop-color="#009CDA"/>
<stop offset="0.00390625" stop-color="#019CD9"/>
<stop offset="0.0078125" stop-color="#029CD8"/>
<stop offset="0.0117188" stop-color="#039CD7"/>
<stop offset="0.015625" stop-color="#049DD7"/>
<stop offset="0.0195312" stop-color="#059DD6"/>
<stop offset="0.0234375" stop-color="#069DD5"/>
<stop offset="0.0273437" stop-color="#079DD4"/>
<stop offset="0.03125" stop-color="#089DD3"/>
<stop offset="0.0351562" stop-color="#099DD2"/>
<stop offset="0.0390625" stop-color="#0A9DD2"/>
<stop offset="0.0429687" stop-color="#0B9DD1"/>
<stop offset="0.046875" stop-color="#0C9DD0"/>
<stop offset="0.0507812" stop-color="#0D9ECF"/>
<stop offset="0.0546875" stop-color="#0E9ECE"/>
<stop offset="0.0585937" stop-color="#0F9ECD"/>
<stop offset="0.0625" stop-color="#109ECC"/>
<stop offset="0.0664062" stop-color="#119ECC"/>
<stop offset="0.0703125" stop-color="#129ECB"/>
<stop offset="0.0742187" stop-color="#139ECA"/>
<stop offset="0.078125" stop-color="#149EC9"/>
<stop offset="0.0820312" stop-color="#159FC8"/>
<stop offset="0.0859375" stop-color="#169FC7"/>
<stop offset="0.0898437" stop-color="#179FC6"/>
<stop offset="0.09375" stop-color="#189FC6"/>
<stop offset="0.0976562" stop-color="#199FC5"/>
<stop offset="0.101562" stop-color="#1A9FC4"/>
<stop offset="0.105469" stop-color="#1B9FC3"/>
<stop offset="0.109375" stop-color="#1C9FC2"/>
<stop offset="0.113281" stop-color="#1D9FC1"/>
<stop offset="0.117187" stop-color="#1EA0C0"/>
<stop offset="0.121094" stop-color="#1FA0C0"/>
<stop offset="0.125" stop-color="#20A0BF"/>
<stop offset="0.128906" stop-color="#21A0BE"/>
<stop offset="0.132812" stop-color="#22A0BD"/>
<stop offset="0.136719" stop-color="#23A0BC"/>
<stop offset="0.140625" stop-color="#24A0BB"/>
<stop offset="0.144531" stop-color="#25A0BB"/>
<stop offset="0.148437" stop-color="#26A0BA"/>
<stop offset="0.152344" stop-color="#27A1B9"/>
<stop offset="0.15625" stop-color="#28A1B8"/>
<stop offset="0.160156" stop-color="#29A1B7"/>
<stop offset="0.164062" stop-color="#2AA1B6"/>
<stop offset="0.167969" stop-color="#2BA1B5"/>
<stop offset="0.171875" stop-color="#2CA1B5"/>
<stop offset="0.175781" stop-color="#2DA1B4"/>
<stop offset="0.179687" stop-color="#2EA1B3"/>
<stop offset="0.183594" stop-color="#2FA2B2"/>
<stop offset="0.1875" stop-color="#30A2B1"/>
<stop offset="0.191406" stop-color="#31A2B0"/>
<stop offset="0.195312" stop-color="#32A2AF"/>
<stop offset="0.199219" stop-color="#33A2AF"/>
<stop offset="0.203125" stop-color="#34A2AE"/>
<stop offset="0.207031" stop-color="#35A2AD"/>
<stop offset="0.210937" stop-color="#36A2AC"/>
<stop offset="0.214844" stop-color="#37A2AB"/>
<stop offset="0.21875" stop-color="#38A3AA"/>
<stop offset="0.222656" stop-color="#39A3A9"/>
<stop offset="0.226562" stop-color="#3AA3A9"/>
<stop offset="0.230469" stop-color="#3BA3A8"/>
<stop offset="0.234375" stop-color="#3CA3A7"/>
<stop offset="0.238281" stop-color="#3DA3A6"/>
<stop offset="0.242187" stop-color="#3EA3A5"/>
<stop offset="0.246094" stop-color="#3FA3A4"/>
<stop offset="0.25" stop-color="#40A4A4"/>
<stop offset="0.253906" stop-color="#41A4A3"/>
<stop offset="0.257812" stop-color="#42A4A2"/>
<stop offset="0.261719" stop-color="#43A4A1"/>
<stop offset="0.265625" stop-color="#44A4A0"/>
<stop offset="0.269531" stop-color="#45A49F"/>
<stop offset="0.273437" stop-color="#46A49E"/>
<stop offset="0.277344" stop-color="#47A49E"/>
<stop offset="0.28125" stop-color="#48A49D"/>
<stop offset="0.285156" stop-color="#49A59C"/>
<stop offset="0.289062" stop-color="#4AA59B"/>
<stop offset="0.292969" stop-color="#4BA59A"/>
<stop offset="0.296875" stop-color="#4CA599"/>
<stop offset="0.300781" stop-color="#4DA598"/>
<stop offset="0.304688" stop-color="#4EA598"/>
<stop offset="0.308594" stop-color="#4FA597"/>
<stop offset="0.3125" stop-color="#50A596"/>
<stop offset="0.316406" stop-color="#51A595"/>
<stop offset="0.320312" stop-color="#52A694"/>
<stop offset="0.324219" stop-color="#53A693"/>
<stop offset="0.328125" stop-color="#54A692"/>
<stop offset="0.332031" stop-color="#55A692"/>
<stop offset="0.335938" stop-color="#56A691"/>
<stop offset="0.339844" stop-color="#57A690"/>
<stop offset="0.34375" stop-color="#58A68F"/>
<stop offset="0.347656" stop-color="#59A68E"/>
<stop offset="0.351562" stop-color="#5AA78D"/>
<stop offset="0.355469" stop-color="#5BA78D"/>
<stop offset="0.359375" stop-color="#5CA78C"/>
<stop offset="0.363281" stop-color="#5DA78B"/>
<stop offset="0.367187" stop-color="#5EA78A"/>
<stop offset="0.371094" stop-color="#5FA789"/>
<stop offset="0.375" stop-color="#60A788"/>
<stop offset="0.378906" stop-color="#61A787"/>
<stop offset="0.382812" stop-color="#62A787"/>
<stop offset="0.386719" stop-color="#63A886"/>
<stop offset="0.390625" stop-color="#64A885"/>
<stop offset="0.394531" stop-color="#65A884"/>
<stop offset="0.398438" stop-color="#66A883"/>
<stop offset="0.402344" stop-color="#67A882"/>
<stop offset="0.40625" stop-color="#68A881"/>
<stop offset="0.410156" stop-color="#69A881"/>
<stop offset="0.414062" stop-color="#6AA880"/>
<stop offset="0.417969" stop-color="#6BA97F"/>
<stop offset="0.421875" stop-color="#6CA97E"/>
<stop offset="0.425781" stop-color="#6DA97D"/>
<stop offset="0.429687" stop-color="#6EA97C"/>
<stop offset="0.433594" stop-color="#6FA97B"/>
<stop offset="0.4375" stop-color="#70A97B"/>
<stop offset="0.441406" stop-color="#71A97A"/>
<stop offset="0.445312" stop-color="#72A979"/>
<stop offset="0.449219" stop-color="#73A978"/>
<stop offset="0.453125" stop-color="#74AA77"/>
<stop offset="0.457031" stop-color="#75AA76"/>
<stop offset="0.460938" stop-color="#76AA76"/>
<stop offset="0.464844" stop-color="#77AA75"/>
<stop offset="0.46875" stop-color="#78AA74"/>
<stop offset="0.472656" stop-color="#79AA73"/>
<stop offset="0.476562" stop-color="#7AAA72"/>
<stop offset="0.480469" stop-color="#7BAA71"/>
<stop offset="0.484375" stop-color="#7CAB70"/>
<stop offset="0.488281" stop-color="#7DAB70"/>
<stop offset="0.492187" stop-color="#7EAB6F"/>
<stop offset="0.496094" stop-color="#7FAB6E"/>
<stop offset="0.5" stop-color="#80AB6D"/>
<stop offset="0.503906" stop-color="#80AB6C"/>
<stop offset="0.507812" stop-color="#81AB6B"/>
<stop offset="0.511719" stop-color="#82AB6A"/>
<stop offset="0.515625" stop-color="#83AB6A"/>
<stop offset="0.519531" stop-color="#84AC69"/>
<stop offset="0.523437" stop-color="#85AC68"/>
<stop offset="0.527344" stop-color="#86AC67"/>
<stop offset="0.53125" stop-color="#87AC66"/>
<stop offset="0.535156" stop-color="#88AC65"/>
<stop offset="0.539062" stop-color="#89AC64"/>
<stop offset="0.542969" stop-color="#8AAC64"/>
<stop offset="0.546875" stop-color="#8BAC63"/>
<stop offset="0.550781" stop-color="#8CAC62"/>
<stop offset="0.554688" stop-color="#8DAD61"/>
<stop offset="0.558594" stop-color="#8EAD60"/>
<stop offset="0.5625" stop-color="#8FAD5F"/>
<stop offset="0.566406" stop-color="#90AD5F"/>
<stop offset="0.570312" stop-color="#91AD5E"/>
<stop offset="0.574219" stop-color="#92AD5D"/>
<stop offset="0.578125" stop-color="#93AD5C"/>
<stop offset="0.582031" stop-color="#94AD5B"/>
<stop offset="0.585938" stop-color="#95AE5A"/>
<stop offset="0.589844" stop-color="#96AE59"/>
<stop offset="0.59375" stop-color="#97AE59"/>
<stop offset="0.597656" stop-color="#98AE58"/>
<stop offset="0.601562" stop-color="#99AE57"/>
<stop offset="0.605469" stop-color="#9AAE56"/>
<stop offset="0.609375" stop-color="#9BAE55"/>
<stop offset="0.613281" stop-color="#9CAE54"/>
<stop offset="0.617188" stop-color="#9DAE53"/>
<stop offset="0.621094" stop-color="#9EAF53"/>
<stop offset="0.625" stop-color="#9FAF52"/>
<stop offset="0.628906" stop-color="#A0AF51"/>
<stop offset="0.632813" stop-color="#A1AF50"/>
<stop offset="0.636719" stop-color="#A2AF4F"/>
<stop offset="0.640625" stop-color="#A3AF4E"/>
<stop offset="0.644531" stop-color="#A4AF4D"/>
<stop offset="0.648438" stop-color="#A5AF4D"/>
<stop offset="0.652344" stop-color="#A6B04C"/>
<stop offset="0.65625" stop-color="#A7B04B"/>
<stop offset="0.660156" stop-color="#A8B04A"/>
<stop offset="0.664063" stop-color="#A9B049"/>
<stop offset="0.667969" stop-color="#AAB048"/>
<stop offset="0.671875" stop-color="#ABB048"/>
<stop offset="0.675781" stop-color="#ACB047"/>
<stop offset="0.679688" stop-color="#ADB046"/>
<stop offset="0.683594" stop-color="#AEB045"/>
<stop offset="0.6875" stop-color="#AFB144"/>
<stop offset="0.691406" stop-color="#B0B143"/>
<stop offset="0.695312" stop-color="#B1B142"/>
<stop offset="0.699219" stop-color="#B2B142"/>
<stop offset="0.703125" stop-color="#B3B141"/>
<stop offset="0.707031" stop-color="#B4B140"/>
<stop offset="0.710938" stop-color="#B5B13F"/>
<stop offset="0.714844" stop-color="#B6B13E"/>
<stop offset="0.71875" stop-color="#B7B23D"/>
<stop offset="0.722656" stop-color="#B8B23C"/>
<stop offset="0.726562" stop-color="#B9B23C"/>
<stop offset="0.730469" stop-color="#BAB23B"/>
<stop offset="0.734375" stop-color="#BBB23A"/>
<stop offset="0.738281" stop-color="#BCB239"/>
<stop offset="0.742188" stop-color="#BDB238"/>
<stop offset="0.746094" stop-color="#BEB237"/>
<stop offset="0.75" stop-color="#BFB237"/>
<stop offset="0.753906" stop-color="#C0B336"/>
<stop offset="0.757813" stop-color="#C1B335"/>
<stop offset="0.761719" stop-color="#C2B334"/>
<stop offset="0.765625" stop-color="#C3B333"/>
<stop offset="0.769531" stop-color="#C4B332"/>
<stop offset="0.773438" stop-color="#C5B331"/>
<stop offset="0.777344" stop-color="#C6B331"/>
<stop offset="0.78125" stop-color="#C7B330"/>
<stop offset="0.785156" stop-color="#C8B32F"/>
<stop offset="0.789063" stop-color="#C9B42E"/>
<stop offset="0.792969" stop-color="#CAB42D"/>
<stop offset="0.796875" stop-color="#CBB42C"/>
<stop offset="0.800781" stop-color="#CCB42B"/>
<stop offset="0.804688" stop-color="#CDB42B"/>
<stop offset="0.808594" stop-color="#CEB42A"/>
<stop offset="0.8125" stop-color="#CFB429"/>
<stop offset="0.816406" stop-color="#D0B428"/>
<stop offset="0.820312" stop-color="#D1B527"/>
<stop offset="0.824219" stop-color="#D2B526"/>
<stop offset="0.828125" stop-color="#D3B525"/>
<stop offset="0.832031" stop-color="#D4B525"/>
<stop offset="0.835938" stop-color="#D5B524"/>
<stop offset="0.839844" stop-color="#D6B523"/>
<stop offset="0.84375" stop-color="#D7B522"/>
<stop offset="0.847656" stop-color="#D8B521"/>
<stop offset="0.851562" stop-color="#D9B520"/>
<stop offset="0.855469" stop-color="#DAB620"/>
<stop offset="0.859375" stop-color="#DBB61F"/>
<stop offset="0.863281" stop-color="#DCB61E"/>
<stop offset="0.867188" stop-color="#DDB61D"/>
<stop offset="0.871094" stop-color="#DEB61C"/>
<stop offset="0.875" stop-color="#DFB61B"/>
<stop offset="0.878906" stop-color="#E0B61A"/>
<stop offset="0.882812" stop-color="#E1B61A"/>
<stop offset="0.886719" stop-color="#E2B719"/>
<stop offset="0.890625" stop-color="#E3B718"/>
<stop offset="0.894531" stop-color="#E4B717"/>
<stop offset="0.898438" stop-color="#E5B716"/>
<stop offset="0.902344" stop-color="#E6B715"/>
<stop offset="0.90625" stop-color="#E7B714"/>
<stop offset="0.910156" stop-color="#E8B714"/>
<stop offset="0.914063" stop-color="#E9B713"/>
<stop offset="0.917969" stop-color="#EAB712"/>
<stop offset="0.921875" stop-color="#EBB811"/>
<stop offset="0.925781" stop-color="#ECB810"/>
<stop offset="0.929688" stop-color="#EDB80F"/>
<stop offset="0.933594" stop-color="#EEB80E"/>
<stop offset="0.9375" stop-color="#EFB80E"/>
<stop offset="0.941406" stop-color="#F0B80D"/>
<stop offset="0.945312" stop-color="#F1B80C"/>
<stop offset="0.949219" stop-color="#F2B80B"/>
<stop offset="0.953125" stop-color="#F3B80A"/>
<stop offset="0.957031" stop-color="#F4B909"/>
<stop offset="0.960937" stop-color="#F5B909"/>
<stop offset="0.964844" stop-color="#F6B908"/>
<stop offset="0.96875" stop-color="#F7B907"/>
<stop offset="0.972656" stop-color="#F8B906"/>
<stop offset="0.976562" stop-color="#F9B905"/>
<stop offset="0.980469" stop-color="#FAB904"/>
<stop offset="0.984375" stop-color="#FBB903"/>
<stop offset="0.988281" stop-color="#FCBA03"/>
<stop offset="0.992188" stop-color="#FDBA02"/>
<stop offset="0.996094" stop-color="#FEBA01"/>
<stop offset="1" stop-color="#FFBA00"/>
</linearGradient>
<clipPath id="clip0_105_408">
<rect width="88" height="88" rx="2" fill="white"/>
</clipPath>
</defs>
</svg>
